PERFORMER "Danny Howells"
TITLE "Essential Mix (2007-02-18)"
FILE "01-danny_howells-essential_mix-sat-02-18-2007.mp3" MP3
  TRACK 01 AUDIO
    PERFORMER "Essential Mix"
    TITLE "Intro"
    INDEX 01 00:00:00
  TRACK 02 AUDIO
    PERFORMER "Phil Lynott"
    TITLE "Yellow Pearl (Top Of The Pops Extract)"
    INDEX 01 01:04:43
  TRACK 03 AUDIO
    PERFORMER "Pulp"
    TITLE "This Is Hardcore (End Of The Line Remix)"
    INDEX 01 01:32:03
  TRACK 04 AUDIO
    PERFORMER "Tom Middleton pres. AMBA"
    TITLE "Shinkansen (The Odyssey)"
    INDEX 01 04:09:69
  TRACK 05 AUDIO
    PERFORMER "F12 & Swedish Hitmusic Strings"
    TITLE "No 7 - Go Bang!"
    INDEX 01 12:09:04
  TRACK 06 AUDIO
    PERFORMER "Quentin Harris"
    TITLE "House (Danny Howells Edit)"
    INDEX 01 16:31:46
  TRACK 07 AUDIO
    PERFORMER "Lagos Nagoya Player's Association"
    TITLE "Kaminari"
    INDEX 01 22:41:57
  TRACK 08 AUDIO
    PERFORMER "Little Big Bee"
    TITLE "Scuba (Tom Middleton Edit)"
    INDEX 01 27:34:41
  TRACK 09 AUDIO
    PERFORMER "Nick Chacona"
    TITLE "Leo"
    INDEX 01 34:45:37
  TRACK 10 AUDIO
    PERFORMER "Bent"
    TITLE "Waiting For You (Danny Howells Remix)"
    INDEX 01 41:09:50
  TRACK 11 AUDIO
    PERFORMER "Chris Morris"
    TITLE "Blue Jam (Extract)"
    INDEX 01 48:19:58
  TRACK 12 AUDIO
    PERFORMER "Figurines"
    TITLE "Silver Ponds (Ben Watt Dub)"
    INDEX 01 49:44:16
  TRACK 13 AUDIO
    PERFORMER "Numaro"
    TITLE "Losing Control"
    INDEX 01 56:56:52
  TRACK 14 AUDIO
    PERFORMER "Marc Romboy vs. Blake Baxter"
    TITLE "The Club (Version 2)"
    INDEX 01 63:35:50
  TRACK 15 AUDIO
    PERFORMER "Sébastien Léger"
    TITLE "Cosmogold"
    INDEX 01 70:45:10
  TRACK 16 AUDIO
    PERFORMER "Jon Silva"
    TITLE "The Love In Me"
    INDEX 01 75:04:26
  TRACK 17 AUDIO
    PERFORMER "Theo Parrish"
    TITLE "Falling Up (Technasia Remix #1)"
    INDEX 01 81:25:18
  TRACK 18 AUDIO
    PERFORMER "Octave One feat. Random Noise Generation"
    TITLE "Love And Hate (DH Edit)"
    INDEX 01 84:58:12
  TRACK 19 AUDIO
    PERFORMER "Claude VonStroke"
    TITLE "Who's Afraid Of Detroit (Kevin Saunderson Mix)"
    INDEX 01 90:01:72
  TRACK 20 AUDIO
    PERFORMER "Drug Addiction"
    TITLE "Let's Talk (Slight Reprise)"
    INDEX 01 94:57:37
  TRACK 21 AUDIO
    PERFORMER "Agoria"
    TITLE "Europa (Danny Howells Edit)"
    INDEX 01 100:16:68
  TRACK 22 AUDIO
    PERFORMER "Thom Yorke"
    TITLE "Harrowdown Hill (Danny's Edit)"
    INDEX 01 108:51:16
  TRACK 23 AUDIO
    PERFORMER "James Brown"
    TITLE "Get On The Good Foot"
    INDEX 01 115:51:58